<svg width="9" height="9" viewBox="0 0 9 9" fill="none" xmlns="http://www.w3.org/2000/svg">
<path d="M7.27494 1.56523C7.41358 1.42881 7.60204 1.35143 7.79901 1.35001C7.99606 1.3486 8.1856 1.42326 8.32632 1.55769C8.46703 1.69211 8.54745 1.87536 8.54997 2.0674C8.55249 2.25943 8.47693 2.44463 8.33977 2.58252L4.37194 7.41784C4.30377 7.48939 4.22152 7.54681 4.13008 7.58668C4.03865 7.62655 3.93991 7.64801 3.83977 7.64986C3.73962 7.6517 3.64013 7.63384 3.54721 7.59739C3.4543 7.56089 3.36988 7.50653 3.299 7.43755L0.668271 4.87412C0.528474 4.73777 0.449965 4.55291 0.450012 4.36013C0.450062 4.16736 0.528663 3.98251 0.668523 3.84623C0.808388 3.70995 0.998058 3.63343 1.19581 3.63348C1.39356 3.63352 1.5832 3.71014 1.72299 3.84648L3.83977 5.82385L7.25518 1.58793C7.26148 1.58013 7.26823 1.57271 7.27543 1.56573L7.27494 1.56523Z" fill="#38AB96"/>
<path fill-rule="evenodd" clip-rule="evenodd" d="M8.32632 1.55769C8.1856 1.42326 7.99606 1.3486 7.79901 1.35001C7.75567 1.35033 7.7127 1.35432 7.67062 1.36181C7.57927 1.37807 7.49197 1.41081 7.41318 1.45819C7.41147 1.45921 7.40976 1.46024 7.40805 1.46127C7.36012 1.49061 7.31544 1.52541 7.27494 1.56523L7.27543 1.56573C7.26823 1.57271 7.26148 1.58013 7.25518 1.58793L3.83977 5.82385L1.72299 3.84648C1.5832 3.71014 1.39356 3.63352 1.19581 3.63348C0.998058 3.63343 0.808388 3.70995 0.668523 3.84623C0.528663 3.98251 0.450062 4.16736 0.450012 4.36013C0.449965 4.55291 0.528474 4.73777 0.668271 4.87412L3.299 7.43755C3.36988 7.50653 3.4543 7.56089 3.54721 7.59739C3.64013 7.63384 3.73962 7.6517 3.83977 7.64986C3.93991 7.64801 4.03865 7.62655 4.13008 7.58668C4.22152 7.54681 4.30377 7.48939 4.37194 7.41784L8.33977 2.58252C8.47693 2.44463 8.55249 2.25943 8.54997 2.0674C8.54745 1.87536 8.46703 1.69211 8.32632 1.55769ZM4.01782 7.17425L7.98652 2.33793L8.00029 2.32405C8.06109 2.26294 8.10132 2.17275 8.09997 2.07191C8.09866 1.9711 8.05614 1.88253 7.99449 1.82363C7.93432 1.76614 7.86421 1.74331 7.80274 1.74375C7.74721 1.74415 7.68471 1.76361 7.62918 1.81052L7.6168 1.82247L3.889 6.44584L1.39126 4.11257L1.38803 4.10942C1.32792 4.0508 1.25745 4.02724 1.1957 4.02723C1.13393 4.02721 1.06346 4.05073 1.00334 4.10932C0.941759 4.16932 0.900039 4.25897 0.900012 4.36022C0.899985 4.46138 0.94161 4.55102 1.00309 4.61105L3.63363 7.1743C3.63362 7.1743 3.63364 7.1743 3.63363 7.1743C3.66431 7.20418 3.69811 7.22506 3.73143 7.23815C3.76455 7.25111 3.79797 7.25678 3.83031 7.2562C3.86265 7.25561 3.8962 7.24868 3.92937 7.23424C3.95965 7.22105 3.99005 7.2013 4.01782 7.17425Z" fill="#38AB96"/>
</svg>
