<svg width="25" height="17" viewBox="0 0 25 17" fill="none" xmlns="http://www.w3.org/2000/svg">
<path d="M1.20635 0.213048C-0.402117 0.994519 -0.402117 3.33034 1.20635 4.09464C1.98975 4.47249 2.83982 4.33509 3.49821 3.72537C3.97325 3.28741 4.1816 2.8065 4.1816 2.14526C4.1816 0.556551 2.60647 -0.465373 1.20635 0.213048Z" fill="#38AB96"/>
<path d="M6.60674 0.599489C5.53999 1.09757 5.43998 2.91814 6.44006 3.59656L6.78176 3.82842L15.1575 3.85419C20.9663 3.87136 23.6332 3.85419 23.8498 3.78549C24.7749 3.51068 25.2583 2.35136 24.8416 1.4239C24.6582 1.02028 24.3082 0.659602 23.9749 0.530788C23.8165 0.462088 21.0746 0.436325 15.3491 0.436325C7.2818 0.436325 6.9401 0.444912 6.60674 0.599489Z" fill="white"/>
<path d="M1.20632 6.55929C0.39792 6.95431 -0.0604514 7.77014 0.0228889 8.66325C0.147899 10.0974 1.398 10.9561 2.78145 10.5611C3.18148 10.4495 3.80654 9.85692 4.00655 9.41037C4.2149 8.95522 4.2149 8.0707 4.00655 7.60697C3.83154 7.20335 3.42317 6.7568 3.04814 6.55929C2.90646 6.482 2.53143 6.40471 2.2064 6.38753C1.72303 6.36177 1.55635 6.38753 1.20632 6.55929Z" fill="#38AB96"/>
<path d="M6.60677 6.95431C6.39009 7.05736 6.1734 7.25487 6.02339 7.48674C5.81504 7.80448 5.79004 7.93329 5.79004 8.50866C5.79004 9.08403 5.81504 9.21284 6.02339 9.53059C6.1734 9.76245 6.39009 9.95997 6.60677 10.063C6.94013 10.2176 7.28183 10.2262 15.2908 10.2262C20.5079 10.2262 23.7332 10.1918 23.9165 10.1403C24.4999 9.97714 25 9.20426 25 8.49149C24.9916 7.82165 24.5333 7.1003 23.9749 6.88561C23.8165 6.81691 21.0746 6.79114 15.3492 6.79114C7.28183 6.79114 6.94013 6.79973 6.60677 6.95431Z" fill="white"/>
<path d="M1.20616 12.9227C0.506103 13.2576 0.0894012 13.8759 0.022729 14.7089C-0.0856134 15.9198 0.739455 16.9073 1.93122 16.9932C2.8813 17.0619 3.64803 16.6068 4.01473 15.7394C4.21475 15.2757 4.22308 14.4942 4.03973 14.0305C3.59803 12.9399 2.25625 12.416 1.20616 12.9227Z" fill="#38AB96"/>
<path d="M6.81488 13.2318C6.11482 13.4465 5.70645 14.125 5.76479 14.9837C5.80646 15.6879 6.09815 16.1774 6.62319 16.4178C6.97322 16.581 7.24825 16.581 15.4739 16.5638L23.9663 16.5381L24.2747 16.3234C24.6747 16.0486 24.9997 15.3873 24.9997 14.8721C24.9914 14.1078 24.5164 13.4208 23.8496 13.2318C23.4746 13.1288 7.15657 13.1202 6.81488 13.2318Z" fill="white"/>
</svg>
